HIERARCHY
ROOT SimulationBone
{
	OFFSET 0.000000 0.000000 0.000000
	CHANNELS 6 Xposition Yposition Zposition Zrotation Yrotation Xrotation 
	JOINT Hips
	{
		OFFSET 0.000000 0.000000 0.000000
		CHANNELS 6 Xposition Yposition Zposition Zrotation Yrotation Xrotation 
		JOINT RightUpLeg
		{
			OFFSET 0.103457 1.857818 10.548502
			CHANNELS 3 Zrotation Yrotation Xrotation
			JOINT RightLeg
			{
				OFFSET 43.500000 -0.000011 -0.000004
				CHANNELS 3 Zrotation Yrotation Xrotation
				JOINT RightFoot
				{
					OFFSET 42.372192 -0.000004 -0.000008
					CHANNELS 3 Zrotation Yrotation Xrotation
					JOINT RightToe
					{
						OFFSET 17.300014 0.000006 0.000001
						CHANNELS 3 Zrotation Yrotation Xrotation
						End Site
						{
							OFFSET 0.000000 0.000000 0.000000
						}
					}
				}
			}
		}
		JOINT LeftUpLeg
		{
			OFFSET 0.103457 1.857817 -10.548505
			CHANNELS 3 Zrotation Yrotation Xrotation
			JOINT LeftLeg
			{
				OFFSET 43.500046 -0.000004 0.000011
				CHANNELS 3 Zrotation Yrotation Xrotation
				JOINT LeftFoot
				{
					OFFSET 42.372257 0.000000 0.000015
					CHANNELS 3 Zrotation Yrotation Xrotation
					JOINT LeftToe
					{
						OFFSET 17.300003 -0.000000 0.000002
						CHANNELS 3 Zrotation Yrotation Xrotation
						End Site
						{
							OFFSET 0.000000 0.000000 0.000000
						}
					}
				}
			}
		}
		JOINT Spine
		{
			OFFSET 6.901961 -2.603721 -0.000001
			CHANNELS 3 Zrotation Yrotation Xrotation
			JOINT Spine1
			{
				OFFSET 12.588108 0.000002 -0.000001
				CHANNELS 3 Zrotation Yrotation Xrotation
				JOINT Spine2
				{
					OFFSET 12.343199 -0.000020 0.000006
					CHANNELS 3 Zrotation Yrotation Xrotation
					JOINT Neck
					{
						OFFSET 25.832905 0.000017 0.000000
						CHANNELS 3 Zrotation Yrotation Xrotation
						JOINT Head
						{
							OFFSET 11.766604 -0.000006 0.000004
							CHANNELS 3 Zrotation Yrotation Xrotation
							End Site
							{
								OFFSET 0.000000 0.000000 0.000000
							}
						}
					}
					JOINT RightShoulder
					{
						OFFSET 19.745903 -1.480350 6.000100
						CHANNELS 3 Zrotation Yrotation Xrotation
						JOINT RightArm
						{
							OFFSET 11.284130 -0.000016 -0.000016
							CHANNELS 3 Zrotation Yrotation Xrotation
							JOINT RightForeArm
							{
								OFFSET 33.000046 0.000004 0.000031
								CHANNELS 3 Zrotation Yrotation Xrotation
								JOINT RightHand
								{
									OFFSET 25.199999 0.000027 0.000001
									CHANNELS 3 Zrotation Yrotation Xrotation
									End Site
									{
										OFFSET 0.000000 0.000000 0.000000
									}
								}
							}
						}
					}
					JOINT LeftShoulder
					{
						OFFSET 19.746094 -1.480375 -6.000080
						CHANNELS 3 Zrotation Yrotation Xrotation
						JOINT LeftArm
						{
							OFFSET 11.284131 -0.000016 -0.000017
							CHANNELS 3 Zrotation Yrotation Xrotation
							JOINT LeftForeArm
							{
								OFFSET 33.000095 0.000009 0.000020
								CHANNELS 3 Zrotation Yrotation Xrotation
								JOINT LeftHand
								{
									OFFSET 25.199789 0.000132 0.000423
									CHANNELS 3 Zrotation Yrotation Xrotation
									End Site
									{
										OFFSET 0.000000 0.000000 0.000000
									}
								}
							}
						}
					}
				}
			}
		}
	}
}
MOTION
Frames: 5
Frame Time: 0.016667
-15.070767 0.000000 499.164808 0.000000 97.340355 0.000000 -0.934032 88.038582 1.045491 93.626005 3.105441 -177.897070 169.480776 -21.644897 150.120003 -43.562140 -1.777932 -8.676987 84.649368 3.982673 -10.851551 21.454560 0.003105 0.000017 172.121286 16.266915 -157.126781 -18.429788 -0.536244 13.310579 59.903299 -3.130378 15.657490 21.454555 -0.003101 0.000000 8.684972 0.868108 0.726993 7.369005 1.688301 1.507830 7.050882 1.697231 1.497600 17.891196 0.283450 5.177157 -13.707080 -15.468247 10.633030 -146.677600 -73.874728 -35.568205 7.037994 46.477903 -8.192996 -113.203800 4.006652 3.097895 -7.326174 9.446792 -56.609860 -163.097908 81.602898 18.712096 -0.274912 -45.996631 26.153212 -102.505402 1.331978 -2.953727 6.637882 19.339257 -10.757063 
-16.604224 0.000000 499.657280 0.000000 99.125982 0.000000 -0.884030 87.640746 1.276982 93.495824 3.140467 -178.632239 167.625268 -21.104801 151.624758 -46.149618 -1.854812 -8.872041 85.395795 4.316475 -10.136179 21.454556 0.003108 0.000017 172.463478 17.117874 -156.810855 -18.071317 -0.923660 13.689516 58.947064 -2.656960 17.083359 21.454556 -0.003098 -0.000000 8.689128 0.768162 0.623546 7.374460 1.495153 1.294764 7.056345 1.502804 1.285706 18.002236 1.464941 6.050287 -14.036685 -16.394717 11.935002 -148.436522 -73.777734 -33.771054 6.495653 47.450333 -8.115135 -111.908380 3.850076 3.053175 -6.284692 9.449353 -56.740218 -164.682636 81.778456 17.105350 -5.057640 -43.416684 31.091483 -97.689908 1.462620 -2.710879 3.535649 20.168004 -12.138065 
-18.049498 0.000000 500.100162 0.000000 100.876983 0.000000 -0.839560 87.216164 1.389628 93.401969 3.174661 -179.410336 166.091418 -20.455100 153.021453 -48.414630 -1.978318 -8.900362 86.307082 4.511804 -9.541903 21.454557 0.003110 0.000017 172.833798 17.915805 -156.689498 -17.694377 -1.227665 14.102955 58.132723 -2.696551 17.414086 21.454555 -0.003095 0.000000 8.683009 0.680991 0.542807 7.360174 1.326192 1.127801 7.042061 1.332842 1.119764 18.111819 2.390574 6.859356 -14.248602 -17.262666 13.128938 -150.038108 -73.675717 -32.134190 5.630209 48.322218 -8.030590 -110.555101 3.659197 3.007381 -5.083172 9.352349 -56.767422 -167.036072 82.136473 14.720504 -8.838425 -40.689044 33.820271 -93.121405 2.490763 -2.617952 1.787029 18.241552 -13.523498 
-19.413093 0.000000 500.495667 0.000000 102.596599 0.000000 -0.795628 86.802567 1.403132 93.350846 3.193358 179.814672 164.902836 -19.633797 154.272373 -50.251310 -2.090496 -8.866700 87.397123 4.655234 -9.014259 21.454558 0.003111 0.000018 173.199160 18.682084 -156.781960 -17.462332 -1.523307 14.577553 57.775964 -3.063932 17.271914 21.454552 -0.003092 0.000000 8.673500 0.605284 0.490884 7.339786 1.178318 1.019147 7.021674 1.184317 1.012002 18.196908 3.074418 7.562967 -14.305935 -18.030968 14.148406 -151.510237 -73.551489 -30.629714 4.308406 49.092263 -7.968752 -109.064288 3.423244 2.958695 -3.830724 9.168762 -56.780544 -170.062310 82.659569 11.657846 -11.674917 -38.170698 34.858631 -89.036639 3.992408 -2.558167 1.239054 14.600404 -14.568044 
-20.701511 0.000000 500.846008 0.000000 104.287841 0.000000 -0.749973 86.437683 1.337091 93.350101 3.182332 179.089102 164.084025 -18.579303 155.339893 -51.552385 -2.142110 -8.879638 88.682485 4.831714 -8.495869 21.454560 0.003111 0.000018 173.526092 19.438290 -157.108298 -17.540020 -1.882837 15.141083 58.199563 -3.554463 17.265666 21.454551 -0.003088 0.000000 8.667489 0.539751 0.473864 7.326945 1.048519 0.980929 7.008839 1.054288 0.974569 18.234956 3.530954 8.119280 -14.168812 -18.658509 14.925425 -152.873907 -73.386854 -29.236609 2.393718 49.758699 -7.961887 -107.356011 3.131622 2.903822 -2.636038 8.914991 -56.867673 -173.724454 83.333960 7.958649 -13.572546 -36.138933 34.700908 -85.683103 5.532858 -2.501523 1.603924 10.268015 -15.090683 
